<svg xmlns="http://www.w3.org/2000/svg" viewBox="0 0 32 32"><defs><style>.cls-1{fill:#ff931e;}.cls-2{fill:#2e3192;}</style></defs><title>Mail, Emails, envelopes, messages</title><g id="_02" data-name="02"><rect class="cls-1" x="3" y="6" width="13" height="20" id="id_101"></rect><path class="cls-2" d="M27,27H5a3,3,0,0,1-3-3V8A3,3,0,0,1,5,5H27a3,3,0,0,1,3,3V24A3,3,0,0,1,27,27ZM5,7A1,1,0,0,0,4,8V24a1,1,0,0,0,1,1H27a1,1,0,0,0,1-1V8a1,1,0,0,0-1-1Z" id="id_102" style="fill: rgb(255, 255, 255);"></path><path class="cls-2" d="M16,18a.993.993,0,0,1-.573-.181l-10-7A1,1,0,0,1,6.573,9.181L16,15.779l9.427-6.6a1,1,0,0,1,1.146,1.638l-10,7A.993.993,0,0,1,16,18Z" id="id_103" style="fill: rgb(255, 255, 255);"></path></g></svg>