<svg version="1" xmlns="http://www.w3.org/2000/svg" viewBox="0 0 48 48" enable-background="new 0 0 48 48">
<path fill="#ffffff" d="M24,4c-5.5,0-10,4.5-10,10v4h4v-4c0-3.3,2.7-6,6-6s6,2.7,6,6v4h4v-4C34,8.5,29.5,4,24,4z" id="id_101"></path>
<path fill="#ffffff" d="M36,44H12c-2.2,0-4-1.8-4-4V22c0-2.2,1.8-4,4-4h24c2.2,0,4,1.8,4,4v18C40,42.2,38.2,44,36,44z" id="id_102"></path>
<circle fill="#EFEBE9" cx="24" cy="31" r="6" id="id_103"></circle>
<circle fill="#1E88E5" cx="24" cy="31" r="3" id="id_104"></circle>
<circle fill="#fff" cx="26" cy="29" r="1" id="id_105"></circle>
</svg>